<svg width="12" height="24" viewBox="0 0 12 24" fill="none" xmlns="http://www.w3.org/2000/svg">
<path d="M9 4H3C2.44781 4 2 4.44781 2 5V19C2 19.5522 2.44781 20 3 20H9C9.55219 20 10 19.5522 10 19V5C10 4.44781 9.55219 4 9 4ZM3 19V5H9V7H7.25C7.11188 7 7 7.11188 7 7.25V7.75C7 7.88812 7.11188 8 7.25 8H9V10H7.25C7.11188 10 7 10.1119 7 10.25V10.75C7 10.8881 7.11188 11 7.25 11H9V13H7.25C7.11188 13 7 13.1119 7 13.25V13.75C7 13.8881 7.11188 14 7.25 14H9V16H7.25C7.11188 16 7 16.1119 7 16.25V16.75C7 16.8881 7.11188 17 7.25 17H9V19H3Z" fill="#212121"/>
</svg>
