<svg width="158" height="41" viewBox="0 0 158 41" fill="none" xmlns="http://www.w3.org/2000/svg">
<path d="M6.388 13.756C6.988 12.82 7.816 12.064 8.872 11.488C9.928 10.912 11.164 10.624 12.58 10.624C14.236 10.624 15.736 11.044 17.08 11.884C18.424 12.724 19.48 13.924 20.248 15.484C21.04 17.044 21.436 18.856 21.436 20.92C21.436 22.984 21.04 24.808 20.248 26.392C19.48 27.952 18.424 29.164 17.08 30.028C15.736 30.868 14.236 31.288 12.58 31.288C11.188 31.288 9.952 31 8.872 30.424C7.816 29.848 6.988 29.104 6.388 28.192V40.576H0.232V10.912H6.388V13.756ZM15.172 20.92C15.172 19.384 14.74 18.184 13.876 17.32C13.036 16.432 11.992 15.988 10.744 15.988C9.52 15.988 8.476 16.432 7.612 17.32C6.772 18.208 6.352 19.42 6.352 20.956C6.352 22.492 6.772 23.704 7.612 24.592C8.476 25.48 9.52 25.924 10.744 25.924C11.968 25.924 13.012 25.48 13.876 24.592C14.74 23.68 15.172 22.456 15.172 20.92ZM33.8096 31.288C31.8416 31.288 30.0656 30.868 28.4816 30.028C26.9216 29.188 25.6856 27.988 24.7736 26.428C23.8856 24.868 23.4416 23.044 23.4416 20.956C23.4416 18.892 23.8976 17.08 24.8096 15.52C25.7216 13.936 26.9696 12.724 28.5536 11.884C30.1376 11.044 31.9136 10.624 33.8816 10.624C35.8496 10.624 37.6256 11.044 39.2096 11.884C40.7936 12.724 42.0416 13.936 42.9536 15.52C43.8656 17.08 44.3216 18.892 44.3216 20.956C44.3216 23.02 43.8536 24.844 42.9176 26.428C42.0056 27.988 40.7456 29.188 39.1376 30.028C37.5536 30.868 35.7776 31.288 33.8096 31.288ZM33.8096 25.96C34.9856 25.96 35.9816 25.528 36.7976 24.664C37.6376 23.8 38.0576 22.564 38.0576 20.956C38.0576 19.348 37.6496 18.112 36.8336 17.248C36.0416 16.384 35.0576 15.952 33.8816 15.952C32.6816 15.952 31.6856 16.384 30.8936 17.248C30.1016 18.088 29.7056 19.324 29.7056 20.956C29.7056 22.564 30.0896 23.8 30.8576 24.664C31.6496 25.528 32.6336 25.96 33.8096 25.96ZM59.8635 31L53.7435 22.576V31H47.5875V4.36H53.7435V19.084L59.8275 10.912H67.4235L59.0715 20.992L67.4955 31H59.8635ZM88.7774 20.632C88.7774 21.208 88.7414 21.808 88.6694 22.432H74.7374C74.8334 23.68 75.2294 24.64 75.9254 25.312C76.6454 25.96 77.5214 26.284 78.5534 26.284C80.0894 26.284 81.1574 25.636 81.7574 24.34H88.3094C87.9734 25.66 87.3614 26.848 86.4734 27.904C85.6094 28.96 84.5174 29.788 83.1974 30.388C81.8774 30.988 80.4014 31.288 78.7694 31.288C76.8014 31.288 75.0494 30.868 73.5134 30.028C71.9774 29.188 70.7774 27.988 69.9134 26.428C69.0494 24.868 68.6174 23.044 68.6174 20.956C68.6174 18.868 69.0374 17.044 69.8774 15.484C70.7414 13.924 71.9414 12.724 73.4774 11.884C75.0134 11.044 76.7774 10.624 78.7694 10.624C80.7134 10.624 82.4414 11.032 83.9534 11.848C85.4654 12.664 86.6414 13.828 87.4814 15.34C88.3454 16.852 88.7774 18.616 88.7774 20.632ZM82.4774 19.012C82.4774 17.956 82.1174 17.116 81.3974 16.492C80.6774 15.868 79.7774 15.556 78.6974 15.556C77.6654 15.556 76.7894 15.856 76.0694 16.456C75.3734 17.056 74.9414 17.908 74.7734 19.012H82.4774ZM82.9094 5.764L74.2334 9.4V5.152L82.9094 0.975998V5.764ZM90.801 20.92C90.801 18.856 91.185 17.044 91.953 15.484C92.745 13.924 93.813 12.724 95.157 11.884C96.501 11.044 98.001 10.624 99.657 10.624C100.977 10.624 102.177 10.9 103.257 11.452C104.361 12.004 105.225 12.748 105.849 13.684V4.36H112.005V31H105.849V28.12C105.273 29.08 104.445 29.848 103.365 30.424C102.309 31 101.073 31.288 99.657 31.288C98.001 31.288 96.501 30.868 95.157 30.028C93.813 29.164 92.745 27.952 91.953 26.392C91.185 24.808 90.801 22.984 90.801 20.92ZM105.849 20.956C105.849 19.42 105.417 18.208 104.553 17.32C103.713 16.432 102.681 15.988 101.457 15.988C100.233 15.988 99.189 16.432 98.325 17.32C97.485 18.184 97.065 19.384 97.065 20.92C97.065 22.456 97.485 23.68 98.325 24.592C99.189 25.48 100.233 25.924 101.457 25.924C102.681 25.924 103.713 25.48 104.553 24.592C105.417 23.704 105.849 22.492 105.849 20.956ZM135.395 20.632C135.395 21.208 135.359 21.808 135.287 22.432H121.355C121.451 23.68 121.847 24.64 122.543 25.312C123.263 25.96 124.139 26.284 125.171 26.284C126.707 26.284 127.775 25.636 128.375 24.34H134.927C134.591 25.66 133.979 26.848 133.091 27.904C132.227 28.96 131.135 29.788 129.815 30.388C128.495 30.988 127.019 31.288 125.387 31.288C123.419 31.288 121.667 30.868 120.131 30.028C118.595 29.188 117.395 27.988 116.531 26.428C115.667 24.868 115.235 23.044 115.235 20.956C115.235 18.868 115.655 17.044 116.495 15.484C117.359 13.924 118.559 12.724 120.095 11.884C121.631 11.044 123.395 10.624 125.387 10.624C127.331 10.624 129.059 11.032 130.571 11.848C132.083 12.664 133.259 13.828 134.099 15.34C134.963 16.852 135.395 18.616 135.395 20.632ZM129.095 19.012C129.095 17.956 128.735 17.116 128.015 16.492C127.295 15.868 126.395 15.556 125.315 15.556C124.283 15.556 123.407 15.856 122.687 16.456C121.991 17.056 121.559 17.908 121.391 19.012H129.095ZM150.522 31L146.67 25.42L143.43 31H136.77L143.394 20.74L136.59 10.912H143.502L147.354 16.456L150.594 10.912H157.254L150.522 21.028L157.434 31H150.522Z" fill="#EC0344"/>
</svg>
