<svg width="22" height="21" viewBox="0 0 22 21" fill="none" xmlns="http://www.w3.org/2000/svg">
<path d="M21.5512 18.7106L16.4752 14.0872C16.3791 13.9996 16.2536 13.9539 16.1198 13.9539H15.5679C16.885 12.5638 17.6836 10.7548 17.6836 8.77442C17.6836 4.39856 13.7909 0.852936 8.98666 0.852936C4.18245 0.852936 0.289734 4.39856 0.289734 8.77442C0.289734 13.1503 4.18245 16.6959 8.98666 16.6959C11.1609 16.6959 13.147 15.9685 14.6731 14.7689V15.2716C14.6731 15.3934 14.7275 15.5077 14.8195 15.5953L19.8955 20.2187C20.092 20.3977 20.4097 20.3977 20.6063 20.2187L21.5512 19.358C21.7477 19.179 21.7477 18.8896 21.5512 18.7106ZM8.98666 14.8679C5.29047 14.8679 2.29672 12.1411 2.29672 8.77442C2.29672 5.40779 5.29047 2.68097 8.98666 2.68097C12.6829 2.68097 15.6766 5.40779 15.6766 8.77442C15.6766 12.1411 12.6829 14.8679 8.98666 14.8679Z" fill="#EC0344"/>
</svg>
