<svg width="24" height="24" viewBox="0 0 24 24" fill="none" xmlns="http://www.w3.org/2000/svg">
<path d="M21 3H17.962C16.5914 1.18969 14.4408 0 12 0C9.55922 0 7.40859 1.18969 6.03797 3H3C1.34578 3 0 4.34578 0 6V21C0 22.6542 1.34578 24 3 24H21C22.6542 24 24 22.6542 24 21V6C24 4.34578 22.6542 3 21 3ZM12 1.5C15.3136 1.5 18 4.18641 18 7.5C18 10.8136 15.3136 13.5 12 13.5C8.68641 13.5 6 10.8136 6 7.5C6 4.18641 8.68641 1.5 12 1.5ZM22.5 21C22.5 21.8283 21.8283 22.5 21 22.5H3C2.17172 22.5 1.5 21.8283 1.5 21V6C1.5 5.17172 2.17172 4.5 3 4.5H5.13562C4.73156 5.42016 4.5 6.43219 4.5 7.5C4.5 11.6353 7.86469 15 12 15C16.1353 15 19.5 11.6353 19.5 7.5C19.5 6.43219 19.2684 5.42016 18.8644 4.5H21C21.8283 4.5 22.5 5.17172 22.5 6V21ZM12 12C13.2408 12 14.25 10.9908 14.25 9.75C14.25 9.0975 13.9664 8.51437 13.5216 8.10328L14.9391 4.79531C15.1022 4.41516 14.9259 3.97406 14.5448 3.81094C14.1661 3.64781 13.7236 3.82359 13.5605 4.20516L12.142 7.51453C10.4798 7.40625 9.75 8.84297 9.75 9.75C9.75 10.9908 10.7592 12 12 12ZM12 9C12.4144 9 12.75 9.33562 12.75 9.75C12.75 10.1644 12.4144 10.5 12 10.5C11.5856 10.5 11.25 10.1644 11.25 9.75C11.25 9.33562 11.5856 9 12 9Z" fill="#212121"/>
</svg>
